<svg xmlns="http://www.w3.org/2000/svg" version="1.1" xmlns:xlink="http://www.w3.org/1999/xlink" xmlns:svgjs="http://svgjs.dev/svgjs" width="1440" height="560" preserveAspectRatio="none" viewBox="0 0 1440 560"><g mask="url(&quot;#SvgjsMask1002&quot;)" fill="none"><rect width="1440" height="560" x="0" y="0" fill="#0e2a47"></rect><path d="M0,424.946C77.947,419.129,131.614,348.712,193.039,300.374C248.436,256.78,321.414,223.561,341.701,156.05C361.655,89.649,313.931,24.429,296.096,-42.572C280.635,-100.652,274.661,-159.706,243.903,-211.343C208.426,-270.902,168.07,-330.325,106.139,-361.475C38.271,-395.611,-40.817,-407.95,-115.071,-391.897C-192.117,-375.241,-262.916,-332.07,-312.674,-270.934C-361.654,-210.754,-385.671,-133.406,-388.564,-55.867C-391.284,17.043,-358.623,83.568,-328.376,149.964C-298.101,216.421,-268.479,283.753,-212.489,330.639C-151.849,381.419,-78.875,430.832,0,424.946" fill="#0b2239"></path><path d="M1440 976.697C1541.468 975.909 1652.37 1077.953 1735.187 1019.321 1819.1779999999999 959.858 1774.982 823.746 1797.788 723.396 1815.095 647.242 1851.532 578.691 1853.07 500.61 1854.8319999999999 411.19 1860.995 313.26099999999997 1807.277 241.753 1752.709 169.11399999999998 1658.897 132.17200000000003 1568.621 121.95800000000003 1485.168 112.51600000000002 1413.048 171.224 1330.722 187.834 1237.651 206.611 1130.21 168.78699999999998 1054.239 225.736 975.703 284.607 938.49 389.004 931.73 486.922 925.182 581.777 983.21 664.2429999999999 1017.856 752.787 1054.818 847.25 1052.24 976.396 1141.8519999999999 1023.927 1232.581 1072.051 1337.301 977.494 1440 976.697" fill="#113255"></path></g><defs><mask id="SvgjsMask1002"><rect width="1440" height="560" fill="#ffffff"></rect></mask></defs></svg>