<svg xmlns="http://www.w3.org/2000/svg" version="1.1" xmlns:xlink="http://www.w3.org/1999/xlink" xmlns:svgjs="http://svgjs.dev/svgjs" width="440" height="1560" preserveAspectRatio="none" viewBox="0 0 440 1560"><g mask="url(&quot;#SvgjsMask1004&quot;)" fill="none"><rect width="440" height="1560" x="0" y="0" fill="#0e2a47"></rect><path d="M0,564.225C106.289,564.723,197.483,502.5,293.088,456.054C402.029,403.128,527.013,371.056,598.646,273.393C676.751,166.905,706.253,31.107,701.573,-100.871C696.567,-242.037,681.254,-406.325,571.394,-495.116C461.502,-583.933,299.426,-529.589,158.498,-539.795C50.06,-547.648,-53.203,-562.663,-160.953,-548.154C-285.876,-531.332,-430.654,-539.744,-517.851,-448.72C-605.38,-357.35,-578.287,-210.791,-603.007,-86.699C-629.403,45.809,-735.55,188.05,-668.01,305.07C-599.164,424.352,-419.728,403.503,-291.328,453.316C-192.451,491.675,-106.056,563.728,0,564.225" fill="#0b2239"></path><path d="M440 2076.431C534.809 2056.182 564.417 1932.806 644.0989999999999 1877.584 719.502 1825.327 852.6 1849.266 889.183 1765.135 925.952 1680.577 834.377 1594.926 805.017 1507.519 781.764 1438.2930000000001 770.206 1368.503 734.547 1304.774 691.198 1227.3029999999999 658.611 1129.551 575.73 1097.747 492.545 1065.827 403.117 1118.1979999999999 318.141 1144.987 234.858 1171.242 147.553 1191.453 85.05000000000001 1252.434 19.706000000000017 1316.186-33.495000000000005 1400.198-36.94900000000001 1491.425-40.303 1580.008 32.16199999999998 1648.831 66.95400000000001 1730.364 102.89800000000002 1814.596 103.81799999999998 1916.353 170.95800000000003 1978.637 242.359 2044.875 344.754 2096.774 440 2076.431" fill="#113255"></path></g><defs><mask id="SvgjsMask1004"><rect width="440" height="1560" fill="#ffffff"></rect></mask></defs></svg>